<svg width="96" height="96" xmlns="http://www.w3.org/2000/svg">

 <g>
  <title>background</title>
  <rect fill="none" id="canvas_background" height="402" width="582" y="-1" x="-1"/>
 </g>
 <g>
  <title>Layer 1</title>
  <path fill="#ff9d00" id="svg_2" d="m80,12c2.206,0 4,1.794 4,4l0,44c0,2.206 -1.794,4 -4,4l-32,0l-2.563,0l-2.086,1.49l-15.351,10.964l0,-4.454l0,-8l-8,0l-4,0c-2.206,0 -4,-1.794 -4,-4l0,-44c0,-2.206 1.794,-4 4,-4l64,0m0,-8l-64,0c-6.627,0 -12,5.373 -12,12l0,44c0,6.627 5.373,12 12,12l4,0l0,20l28,-20l32,0c6.627,0 12,-5.373 12,-12l0,-44c0,-6.627 -5.373,-12 -12,-12l0,0z"/>
 </g>
</svg>